<!DOCTYPE svg PUBLIC "-//W3C//DTD SVG 1.1//EN" "http://www.w3.org/Graphics/SVG/1.1/DTD/svg11.dtd">

<!-- Uploaded to: SVG Repo, www.svgrepo.com, Transformed by: SVG Repo Mixer Tools -->
<svg fill="#000000" version="1.1" id="Capa_1" xmlns="http://www.w3.org/2000/svg" xmlns:xlink="http://www.w3.org/1999/xlink" width="200px" height="200px" viewBox="-48.95 -48.95 587.45 587.45" xml:space="preserve">

<g id="SVGRepo_bgCarrier" stroke-width="0"/>

<g id="SVGRepo_tracerCarrier" stroke-linecap="round" stroke-linejoin="round"/>

<g id="SVGRepo_iconCarrier"> <g> <g> <path d="M182.083,418.075c-13.144,0-23.833,10.689-23.833,23.836c0,13.137,10.681,23.836,23.833,23.836 c13.147,0,23.844-10.699,23.844-23.836C205.927,428.765,195.23,418.075,182.083,418.075z M182.083,459.11 c-9.48,0-17.207-7.719-17.207-17.199c0-9.491,7.726-17.204,17.207-17.204c9.481,0,17.207,7.713,17.207,17.204 C199.291,451.392,191.564,459.11,182.083,459.11z"/> <path d="M190.135,430.526h-16.11c-1.831,0-3.316,1.487-3.316,3.321v16.127c0,1.828,1.485,3.312,3.316,3.312h16.11 c1.833,0,3.319-1.483,3.319-3.312v-16.127C193.454,432.014,191.968,430.526,190.135,430.526z M186.824,446.659h-9.481v-9.496 h9.481V446.659z"/> <path d="M283.821,410.24V79.585c0-1.833-1.487-3.318-3.315-3.318H83.65c-1.826,0-3.318,1.485-3.318,3.318V410.24 c0,1.833,1.485,3.32,3.318,3.32h196.855C282.333,413.561,283.821,412.073,283.821,410.24z M277.184,406.924H86.968V82.903h190.216 V406.924L277.184,406.924z"/> <path d="M169.856,42.234h24.443c1.823,0,3.316-1.485,3.316-3.319c0-1.825-1.483-3.318-3.316-3.318h-24.443 c-1.833,0-3.318,1.485-3.318,3.318C166.538,40.749,168.03,42.234,169.856,42.234z"/> <path d="M160.32,58.356h43.513c1.833,0,3.318-1.483,3.318-3.316c0-1.833-1.493-3.319-3.318-3.319H160.32 c-1.826,0-3.319,1.485-3.319,3.319C157.001,56.874,158.494,58.356,160.32,58.356z"/> <path d="M256.542,489.548h0.025c29.396,0,53.309-23.907,53.309-53.294V55.041c0-30.425-33.378-54.022-62.079-54.022h-140.21 c-29.389,0-53.286,23.907-53.286,53.293v381.217c0,29.386,23.89,53.293,53.256,53.293L256.542,489.548z M67.093,435.518V54.304 c0-22.333,18.169-40.495,40.494-40.495H247.79c22.188,0,49.29,19.022,49.29,41.231v381.213c0,22.328-18.179,40.497-40.512,40.497 l-148.98-0.736C85.262,476.015,67.093,457.855,67.093,435.518z"/> <circle cx="137.283" cy="55.041" r="3.895"/> <path d="M420.631,0h-17.483c-8.063,0-14.629,6.566-14.629,14.622v458.509c0,8.068,6.565,14.624,14.629,14.624h17.483 c8.055,0,14.615-6.565,14.615-14.624V14.622C435.247,6.559,428.691,0,420.631,0z M422.459,473.131 c0,1.005-0.822,1.828-1.828,1.828h-17.483c-1.015,0-1.838-0.823-1.838-1.828v-47.058h21.149V473.131z M422.459,419.436H401.31 V45.702h21.149V419.436L422.459,419.436z M422.459,39.065H401.31V14.622c0-1.003,0.823-1.823,1.838-1.823h17.483 c1.006,0,1.828,0.82,1.828,1.823V39.065L422.459,39.065z"/> <path d="M411.898,105.221c4.113,0,7.449,3.336,7.449,7.45c0,4.113-3.336,7.45-7.449,7.45c-4.118,0-7.449-3.337-7.449-7.45 C404.449,108.557,407.78,105.221,411.898,105.221z"/> <path d="M411.898,140.447c4.113,0,7.449,3.336,7.449,7.449c0,4.115-3.336,7.449-7.449,7.449c-4.118,0-7.449-3.334-7.449-7.449 C404.449,143.783,407.78,140.447,411.898,140.447z"/> <path d="M411.898,75.873c1.833,0,3.315-1.485,3.315-3.318V55.767c0-1.833-1.482-3.318-3.315-3.318s-3.321,1.485-3.321,3.318 v16.788C408.577,74.388,410.054,75.873,411.898,75.873z"/> </g> </g> </g>

</svg>
